:SAMPLES-PER-SECOND 30
:FULLY-SPECIFIED
:DEGREES
473
root  -10.2038 34.6783 1.607 -172.319 36.3324 -175.089
RightUpLeg  -8.39916 7.1318 1.97703
RightLeg  3.40483 18.0222 -0.0795046
RightFoot  10.1745 -0.257511 3.32577
RightToes  -43.7929 -0.249469 -0.33553
Spine  -2.18831 -1.76148 -0.64994
Spine1  -4.38233 -3.49695 -0.474894
HEad  -64.1581 -43.6019 1.10008
LeftShoulder1  -1.94126e-019 -3.10601e-018 -2.51263e-017
LeftArm  -9.89018 24.686 -72.6799
LeftForeArm  33.6638 -19.298 -3.43432
LeftHand  -0.334174 0.558789 8.03976
RightShoulder  -4.96962e-017 0 -2.36833e-017
RightArm  -66.3859 -3.19248 35.2606
RightForeArm  -171.488 67.8684 158.15
RightHand  0.639144 -7.93122 -28.747
LeftUpLeg  -1.9345 21.9678 5.31425
LeftLeg  13.6612 28.1982 4.7511
LeftFoot  0.491904 -0.00113364 0.425754
LeftToes  -21.7622 2.14545e-006 -7.7278e-009
474
root  -10.2782 34.6764 1.67817 -171.786 38.1696 -174.725
RightUpLeg  -8.71804 7.42975 2.05058
RightLeg  2.65652 19.5222 -0.335565
RightFoot  10.8408 -0.323754 3.83605
RightToes  -45.7569 -0.266027 -0.345279
Spine  -2.22227 -1.70646 -0.637555
Spine1  -4.45437 -3.35425 -0.529401
HEad  -64.4514 -45.3978 1.62545
LeftShoulder1  -1.94126e-019 -3.10601e-018 -2.51263e-017
LeftArm  -7.34056 23.8473 -73.0751
LeftForeArm  32.5924 -21.0038 -3.70409
LeftHand  -0.312793 0.55928 7.52273
RightShoulder  -4.96962e-017 0 -2.36833e-017
RightArm  -72.9572 -2.43335 36.2598
RightForeArm  162.921 67.9141 155.134
RightHand  2.86218 -14.598 -34.6598
LeftUpLeg  -2.30618 23.1317 5.29346
LeftLeg  14.2854 28.8202 5.15499
LeftFoot  0.252847 -0.000285116 0.290939
LeftToes  -21.5208 2.14545e-006 -7.7278e-009
475
root  -10.3453 34.673 1.7192 -171.224 39.7684 -174.379
RightUpLeg  -8.98434 7.30064 2.1112
RightLeg  1.85273 21.2243 -0.654152
RightFoot  11.4471 -0.402041 4.42416
RightToes  -47.9678 -0.285053 -0.355568
Spine  -2.37644 -1.77845 -0.683624
Spine1  -4.75684 -3.49936 -0.593841
HEad  -64.8927 -46.3431 2.10171
LeftShoulder1  -1.94126e-019 -3.10601e-018 -2.51263e-017
LeftArm  -5.59023 23.4476 -73.5421
LeftForeArm  31.9455 -22.9331 -4.01685
LeftHand  -0.306789 0.428486 7.19561
RightShoulder  -4.96962e-017 0 -2.36833e-017
RightArm  -72.1732 -3.94408 36.7602
RightForeArm  164.989 67.6936 155.639
RightHand  2.82128 -13.6268 -37.8994
LeftUpLeg  -2.61917 24.4027 5.2728
LeftLeg  14.6937 29.1305 5.40956
LeftFoot  0.0512023 -8.42721e-006 0.181032
LeftToes  -21.4996 2.14545e-006 -7.7278e-009
476
root  -10.4139 34.6651 1.73775 -170.721 41.1923 -174.109
RightUpLeg  -9.27288 7.09706 2.1106
RightLeg  1.20036 22.8291 -0.953897
RightFoot  11.9105 -0.47828 4.98673
RightToes  -49.9747 -0.302656 -0.364266
Spine  -2.49417 -1.99039 -0.724353
Spine1  -4.98325 -3.93821 -0.567394
HEad  -65.7587 -46.3164 2.60637
LeftShoulder1  -1.94126e-019 -3.10601e-018 -2.51263e-017
LeftArm  -4.78916 23.197 -74.2253
LeftForeArm  31.6288 -24.7238 -4.29257
LeftHand  -0.302923 0.349356 7.00069
RightShoulder  -4.96962e-017 0 -2.36833e-017
RightArm  -64.7221 -7.32982 36.0343
RightForeArm  -175.619 65.6591 159.863
RightHand  1.9152 -10.7777 -39.2474
LeftUpLeg  -2.81229 25.4998 5.17222
LeftLeg  14.8465 29.4356 5.53814
LeftFoot  -0.102635 -5.28782e-005 0.102281
LeftToes  -21.4571 2.14545e-006 -7.7278e-009
477
root  -10.465 34.6574 1.75212 -170.261 42.6575 -173.856
RightUpLeg  -9.51861 7.48729 2.09516
RightLeg  0.604976 23.8588 -1.2354
RightFoot  12.3516 -0.545176 5.43236
RightToes  -51.1566 -0.313161 -0.369098
Spine  -2.57113 -2.18245 -0.72419
Spine1  -5.12951 -4.33592 -0.483131
HEad  -67.6182 -45.4285 3.82384
LeftShoulder1  -1.94126e-019 -3.10601e-018 -2.51263e-017
LeftArm  -4.39724 23.0415 -75.0172
LeftForeArm  30.9738 -26.2784 -4.51964
LeftHand  -0.303713 0.370428 7.08077
RightShoulder  -4.96962e-017 0 -2.36833e-017
RightArm  -56.6458 -10.4425 34.2749
RightForeArm  -160.044 62.5367 163.743
RightHand  0.215754 -6.00646 -37.747
LeftUpLeg  -2.88156 26.5752 5.0735
LeftLeg  14.8669 29.808 5.61189
LeftFoot  -0.237916 -0.000274721 0.029165
LeftToes  -21.402 2.14545e-006 -7.7278e-009
478
root  -10.5119 34.6489 1.75825 -169.938 44.0221 -173.638
RightUpLeg  -9.7151 8.23555 2.06605
RightLeg  0.244693 24.4458 -1.41322
RightFoot  12.6691 -0.592498 5.72684
RightToes  -51.4772 -0.316028 -0.371104
Spine  -2.5848 -2.33729 -0.734221
Spine1  -5.14933 -4.65468 -0.447229
HEad  -68.916 -44.2067 4.59892
LeftShoulder1  -1.94126e-019 -3.10601e-018 -2.51263e-017
LeftArm  -3.97278 22.8471 -75.7874
LeftForeArm  30.3092 -27.6582 -4.74049
LeftHand  -0.30545 0.383748 7.10443
RightShoulder  -4.96962e-017 0 -2.36833e-017
RightArm  -51.0635 -12.1738 33.0473
RightForeArm  -140.749 59.9509 166.687
RightHand  -1.30536 -1.6611 -39.4112
LeftUpLeg  -2.84097 27.2081 4.9462
LeftLeg  14.9048 30.4826 5.74591
LeftFoot  -0.352919 -0.000617519 -0.0389783
LeftToes  -21.0868 2.14545e-006 -7.7278e-009
479
root  -10.5511 34.643 1.76227 -169.739 45.3349 -173.427
RightUpLeg  -9.86093 9.38939 2.03579
RightLeg  0.121686 24.5124 -1.46802
RightFoot  12.9222 -0.619605 5.86001
RightToes  -51.4269 -0.31728 -0.372397
Spine  -2.58362 -2.40903 -0.747372
Spine1  -5.14228 -4.79921 -0.446405
HEad  -70.1086 -42.794 5.35009
LeftShoulder1  -1.94126e-019 -3.10601e-018 -2.51263e-017
LeftArm  -3.43233 22.5324 -76.5856
LeftForeArm  29.981 -28.4804 -4.89046
LeftHand  -0.299791 0.357749 6.93872
RightShoulder  -4.96962e-017 0 -2.36833e-017
RightArm  -50.3006 -12.3793 33.0288
RightForeArm  -123.104 59.6845 167.66
RightHand  -2.2905 -0.272447 -49.1941
LeftUpLeg  -2.73718 27.452 4.81745
LeftLeg  15.072 31.5074 6.00827
LeftFoot  -0.433611 -0.000972675 -0.0955022
LeftToes  -20.8624 2.14545e-006 -7.7278e-009
480
root  -10.587 34.6374 1.75427 -169.621 46.487 -173.284
RightUpLeg  -10.0072 10.4707 1.96316
RightLeg  0.14697 24.5164 -1.45771
RightFoot  13.0652 -0.633845 5.92383
RightToes  -51.0667 -0.318133 -0.373036
Spine  -2.59529 -2.33934 -0.778816
Spine1  -5.16611 -4.6422 -0.527809
HEad  -69.9335 -41.9787 5.11313
LeftShoulder1  -1.94126e-019 -3.10601e-018 -2.51263e-017
LeftArm  -2.49407 21.9947 -77.346
LeftForeArm  30.2752 -28.748 -4.9473
LeftHand  -0.296696 0.162982 6.62968
RightShoulder  -4.96962e-017 0 -2.36833e-017
RightArm  -54.7208 -11.4507 34.5501
RightForeArm  -123.812 60.3595 167.273
RightHand  -2.31373 -0.716354 -53.7576
LeftUpLeg  -2.59112 27.8585 4.71051
LeftLeg  15.2052 32.1896 6.19675
LeftFoot  -0.535702 -0.00154879 -0.16973
LeftToes  -20.3801 2.14545e-006 -7.7278e-009
